<svg width="76" height="76" viewBox="0 0 76 76" fill="none" xmlns="http://www.w3.org/2000/svg">
<line x1="66" y1="19.5" x2="66" y2="0.5" stroke="#00A6F4" stroke-width="3"/>
<line x1="56.5" y1="10" x2="75.5" y2="10" stroke="#00A6F4" stroke-width="3"/>
<path d="M66 26.5V63C66 65.2091 64.2091 67 62 67H13C10.7909 67 9 65.2091 9 63V14C9 11.7909 10.7909 10 13 10H49.5" stroke="black" stroke-width="3"/>
<path d="M39.3667 25.1667H29.5C28.7928 25.1667 28.1145 25.4476 27.6144 25.9477C27.1143 26.4478 26.8333 27.1261 26.8333 27.8333V49.1667C26.8333 49.8739 27.1143 50.5522 27.6144 51.0523C28.1145 51.5524 28.7928 51.8333 29.5 51.8333H45.5C46.2072 51.8333 46.8855 51.5524 47.3856 51.0523C47.8857 50.5522 48.1667 49.8739 48.1667 49.1667V39.3M24.1667 30.5H29.5M24.1667 35.8333H29.5M24.1667 41.1667H29.5M24.1667 46.5H29.5" stroke="#00A6F4" stroke-width="2.66667" stroke-linecap="round" stroke-linejoin="round"/>
<path d="M50.004 30.0013C50.5351 29.4702 50.8335 28.7498 50.8335 27.9987C50.8335 27.2475 50.5351 26.5271 50.004 25.996C49.4729 25.4649 48.7525 25.1665 48.0013 25.1665C47.2502 25.1665 46.5298 25.4649 45.9987 25.996L39.3187 32.6787C39.0017 32.9955 38.7696 33.3871 38.644 33.8173L37.528 37.644C37.4945 37.7587 37.4925 37.8804 37.5222 37.9961C37.5519 38.1119 37.6121 38.2176 37.6966 38.3021C37.7811 38.3866 37.8868 38.4468 38.0025 38.4765C38.1183 38.5061 38.2399 38.5041 38.3547 38.4707L42.1813 37.3547C42.6116 37.229 43.0032 36.997 43.32 36.68L50.004 30.0013Z" stroke="#00A6F4" stroke-width="2.66667" stroke-linecap="round" stroke-linejoin="round"/>
</svg>
